# Blender 3.4.1
# www.blender.org
mtllib model.mtl
o Cube
v 0.500000 0.000000 -0.500000
v 0.500000 0.000000 -0.500000
v 0.500000 0.000000 0.500000
v 0.500000 0.000000 0.500000
v -0.500000 0.000000 -0.500000
v -0.500000 0.000000 -0.500000
v -0.500000 0.000000 0.500000
v -0.500000 0.000000 0.500000
vn -0.0000 1.0000 -0.0000
vn -0.0000 -0.0000 -0.0000
vn -0.0000 -1.0000 -0.0000
vt 0.999692 0.000971
vt 1.002127 0.000404
vt 0.001988 0.000971
vt 0.999692 1.000355
vt 0.996140 0.999809
vt 0.001988 1.002035
vt 1.147198 0.501680
vt 0.623320 -0.336402
vt -0.000617 0.002084
vt 0.373320 -0.336402
vt 1.147198 0.751680
vt 0.621640 1.267157
vt 0.623320 -0.586402
vt 0.371640 1.267157
vt 0.373320 -0.586402
vt 0.002603 1.002296
s 0
usemtl Material.001
f 1/1/1 5/7/1 7/11/1 3/4/1
f 4/6/2 3/4/2 7/12/2 8/14/2
f 8/15/2 7/13/2 5/8/2 6/10/2
f 2/3/2 1/1/2 3/4/2 4/6/2
f 6/10/2 5/8/2 1/1/2 2/3/2
usemtl Material
f 6/9/3 2/2/3 4/5/3 8/16/3
